<svg viewBox="1 0 511 511" xmlns="http://www.w3.org/2000/svg"><path d="m173.640625 28.089844-5.375-5.375c-3.550781-3.550782-7.582031-6.328125-11.882813-8.332032-4.300781 2.003907-8.332031 4.78125-11.882812 8.332032-16.320312 16.320312-16.320312 42.78125 0 59.101562l5.371094 5.371094c3.550781 3.554688 7.582031 6.328125 11.886718 8.335938 4.300782-2.007813 8.332032-4.78125 11.882813-8.335938 16.320313-16.316406 16.320313-42.777344 0-59.097656zm0 0" fill="#feda9b"/><path d="m328.015625 126.671875h-146.453125v47.195313h-34.046875c-11.996094 0-21.71875 9.726562-21.71875 21.722656s9.722656 21.71875 21.71875 21.71875h47.035156c14.050781 0 26.324219-9.507813 29.835938-23.113282l5.609375-21.738281 8.082031 14.015625h73.921875l-36.921875 21.429688c-19.445313 11.289062-31.414063 32.074218-31.414063 54.5625v154.34375c0 6.441406 5.222657 11.664062 11.667969 11.664062h13.03125c5.742188 0 10.628907-4.175781 11.523438-9.84375l25.613281-162.152344 83.804688-56.816406c3.320312-2.25 6.371093-4.804687 9.136718-7.605468-2.691406-36.554688-33.179687-65.382813-70.425781-65.382813zm0 0" fill="#36d28f"/><path d="m430.75 306.675781c-41.214844 12.351563-71.25 50.566407-71.25 95.800781 0 45.234376 30.035156 83.445313 71.25 95.796876 41.214844-12.351563 71.25-50.5625 71.25-95.796876 0-45.234374-30.035156-83.449218-71.25-95.800781zm0 0" fill="#c9f3ff"/><path d="m140.742188 307.296875c-40.183594 12.972656-69.253907 50.675781-69.253907 95.179687 0 44.5 29.070313 82.203126 69.253907 95.175782 40.1875-12.972656 69.257812-50.675782 69.257812-95.175782 0-44.503906-29.070312-82.207031-69.257812-95.179687zm0 0" fill="#c9f3ff"/><path d="m493.664062 492.476562h-28.492187c28.300781-19.925781 46.828125-52.839843 46.828125-90 0-60.65625-49.347656-110-110-110-16.457031 0-32.074219 3.636719-46.105469 10.140626l-27.886719-48.296876c-.140624-.25-.296874-.480468-.457031-.710937l67.363281-45.671875c19.464844-13.195312 31.085938-35.113281 31.085938-58.628906 0-39.058594-31.777344-70.832032-70.835938-70.832032h-17.164062c-5.523438 0-10 4.476563-10 10 0 5.519532 4.476562 10 10 10h17.164062c28.03125 0 50.835938 22.800782 50.835938 50.832032 0 16.875-8.339844 32.605468-22.308594 42.074218l-83.804687 56.8125c-2.289063 1.554688-3.835938 3.984376-4.265625 6.71875l-25.613282 162.152344c-.125.816406-.820312 1.40625-1.644531 1.40625h-13.03125c-.917969 0-1.667969-.746094-1.667969-1.664062v-154.34375c0-18.855469 10.132813-36.445313 26.4375-45.910156l36.917969-21.429688c3.910157-2.273438 5.8125-6.882812 4.636719-11.25s-5.136719-7.398438-9.65625-7.398438h-72.710938l8.609376-33.359374c1.378906-5.347657-1.835938-10.804688-7.183594-12.183594-5.347656-1.382813-10.804688 1.835937-12.183594 7.183594l-13.828125 53.582031c-2.371094 9.191406-10.660156 15.609375-20.152344 15.609375h-47.035156c-6.460937 0-11.71875-5.257813-11.71875-11.71875 0-6.464844 5.257813-11.722656 11.71875-11.722656h34.046875c5.519531 0 10-4.476563 10-10v-50.394532c0-5.519531-4.480469-10-10-10-5.523438 0-10 4.480469-10 10v40.394532h-70.507812c-10.8125 0-20.703126 4.988281-27.132813 13.683593-6.433594 8.691407-8.304687 19.609375-5.136719 29.953125 4.371094 14.273438 17.339844 23.863282 32.269532 23.863282h1.945312c5.519531 0 10-4.476563 10-10 0-5.519532-4.480469-10-10-10h-1.945312c-6.082032 0-11.367188-3.90625-13.148438-9.722657-1.289062-4.210937-.523438-8.660156 2.09375-12.203125 2.621094-3.542968 6.648438-5.574218 11.054688-5.574218h16.996093c-1.449219 3.628906-2.253906 7.582031-2.253906 11.722656 0 17.492187 14.230469 31.71875 31.722656 31.71875h20.398438l-27.25 69.523437c-9.738281-2.832031-20.027344-4.355469-30.667969-4.355469-60.652344 0-110 49.34375-110 110 0 60.652344 49.347656 110 110 110h108.421875c5.523437 0 10-4.480468 10-10 0-5.523437-4.476563-10-10-10h-45.25c28.300781-19.925781 46.828125-52.839843 46.828125-90 0-42.949218-24.742188-80.21875-60.71875-98.324218l13-33.167969 61.386719 94.78125v51.042969c0 11.949218 9.71875 21.667968 21.664062 21.667968h13.03125c10.730469 0 19.730469-7.691406 21.402344-18.285156l1.21875-7.714844h1.476563c2.988281 33.027344 20.632812 61.882813 46.367187 80h-26.828125c-5.523438 0-10 4.476563-10 10 0 5.523438 4.476562 10 10 10h181.664062c5.523438 0 10-4.476562 10-10 0-5.523437-4.476562-10-10-10zm-293.664062-90c0 49.625-40.375 90-90 90-49.628906 0-90-40.375-90-90 0-49.628906 40.371094-90 90-90 8.066406 0 15.886719 1.070313 23.332031 3.070313l-32.640625 83.277344c-2.015625 5.144531.519532 10.945312 5.660156 12.960937 1.199219.46875 2.433594.691406 3.644532.691406 3.996094 0 7.769531-2.410156 9.3125-6.351562l32.632812-83.257812c28.554688 15.105468 48.058594 45.121093 48.058594 79.609374zm-18.734375-154.414062 8.132813-20.753906h5.152343c18.613281 0 34.863281-12.585938 39.519531-30.613282l.246094-.957031c1.164063.472657 2.429688.738281 3.761719.738281h36.773437l-4.792968 2.78125c-22.445313 13.03125-36.394532 37.25-36.394532 63.207032v66.507812zm132.324219 21.285156 24.996094 43.292969c-18.304688 12.960937-32.488282 31.367187-40.179688 52.839844zm35.046875 60.699219 36.042969 62.429687h-72.121094c2.835937-25.542968 16.402344-47.890624 36.078125-62.429687zm-36.078125 82.429687h89.441406c3.570312 0 6.871094-1.90625 8.660156-5 1.785156-3.09375 1.785156-6.90625 0-10l-44.71875-77.453124c11.046875-4.847657 23.242188-7.546876 36.058594-7.546876 49.625 0 90 40.371094 90 90 0 49.625-40.375 90-90 90-46.246094 0-84.453125-35.0625-89.441406-80zm0 0"/><path d="m259.5 492.476562c-2.632812 0-5.210938 1.066407-7.070312 2.929688-1.859376 1.859375-2.929688 4.4375-2.929688 7.070312 0 2.628907 1.066406 5.207032 2.929688 7.066407 1.859374 1.859375 4.4375 2.933593 7.070312 2.933593 2.628906 0 5.210938-1.070312 7.066406-2.933593 1.863282-1.859375 2.933594-4.4375 2.933594-7.066407 0-2.632812-1.070312-5.210937-2.933594-7.070312-1.855468-1.863281-4.4375-2.929688-7.066406-2.929688zm0 0"/><path d="m107.46875 94.261719c10.097656 10.097656 23.355469 15.144531 36.621094 15.144531 13.261718 0 26.527344-5.050781 36.621094-15.144531 20.195312-20.195313 20.195312-53.050781 0-73.246094l-5.371094-5.371094c-20.195313-20.191406-53.050782-20.191406-73.246094 0-20.191406 20.191407-20.191406 53.050781 0 73.242188zm8.769531-64.472657c6.195313-6.199218 14.335938-9.296874 22.476563-9.296874s16.285156 3.097656 22.480468 9.296874l5.375 5.371094c12.394532 12.394532 12.394532 32.5625 0 44.960938-12.398437 12.394531-32.566406 12.394531-44.960937 0l-5.371094-5.375c-12.394531-12.394532-12.394531-32.5625 0-44.957032zm0 0"/><path d="m303 98.476562c2.628906 0 5.210938-1.070312 7.066406-2.933593 1.863282-1.859375 2.933594-4.4375 2.933594-7.066407 0-2.632812-1.070312-5.210937-2.933594-7.070312-1.855468-1.859375-4.4375-2.929688-7.066406-2.929688-2.632812 0-5.210938 1.066407-7.070312 2.929688-1.859376 1.859375-2.929688 4.4375-2.929688 7.070312 0 2.628907 1.066406 5.207032 2.929688 7.066407 1.859374 1.863281 4.4375 2.933593 7.070312 2.933593zm0 0"/><path d="m210 98.476562h53.332031c5.523438 0 10-4.480468 10-10 0-5.523437-4.476562-10-10-10h-53.332031c-5.523438 0-10 4.476563-10 10 0 5.519532 4.476562 10 10 10zm0 0"/></svg>
